<svg xmlns="http://www.w3.org/2000/svg" viewBox="0 0 60 60"><path d="M30 14c-6.9 0-12.5 5.4-12.5 12.1 0 2.6.9 5.2 2.5 7.2l9.4 12.4c.2.3.7.3 1 .1l.1-.1L40 33.4c1.6-2.1 2.5-4.6 2.5-7.2C42.5 19.4 36.9 14 30 14z" fill="#ffc000"/><path d="M29.3 21.3c0-.3 0-.6-.1-.9 0-.1 0-.2-.1-.3 0-.1-.1-.1-.1-.2h-.3l.2.1c-1.5.4-3 1-3.9 2.3-.5.7-.9 1.5-1.2 2.3-.2.5-.3 1.1-.3 1.7.1.5-.2.7.2 1.8 1.6-1.1 3.4-1.5 5-2.3.9-.4.5-1.2.6-2.2v-2.3zm7 2.3c0-.1-.1-.2-.1-.3-.3-.8-1.2-1.8-1.8-2.3v-.1c-.1-.2-.4-.5-.7-.5-.1-.1-.1-.1-.2-.1-.3-.3-1.1-.4-1.5-.4-.3 0-.9.3-1.1.2-.1 2.4.1 5.4.2 6.4 0 .4 2.5 1.5 2.9 1.8.8.6 1.5 1.6 2.1.5.1-.1.1-.1.1-.2 0-.5.3-.9.4-1.4 0-1.3 0-2.5-.3-3.6zM34.6 30c-1.3-.7-2.6-1.4-3.6-2.5-.4-.5-.4.9-.4.8-.1.7 0 1.4 0 2.1 0 .5-.1 2.5.5 2.8.1.3.4.2.7.2.9.1 2.6-.9 3.3-1.6.1-.1.2-.2.2-.3.8-.8.2-1-.7-1.5zm-5.4.6v-.5c0-.6.3-2.7 0-3.1 0-.7-2.2.8-2.5 1-.4.2-2.5 1.2-2.1 1.8 0 .7 1.5 1.7 1.9 2.1.7.5 1.5.9 2.3.9.2 0 .5 0 .5-.3 0-.6-.1-1.1-.1-1.7v-.2z"/></svg>