<svg xmlns="http://www.w3.org/2000/svg" viewBox="0 0 60 60"><path d="M51.9 22.5l-8.7-.5c-1.2 0-2.4 0-3.9.1-1.1.1-2.4.1-3.4.4-.3.1-3 .7-5.7.8h-.4c-2.7-.1-5.4-.7-5.7-.8-1-.3-2.3-.4-3.4-.4-1.5-.1-2.7-.1-3.9-.1l-8.7.4c-.4 0-1.1.3-1.1 1v3c.2.3.5.5.7.7.4.3.6.5.6.8 0 .6.1 1.2.2 1.8l.1.2c.2.8.4 1.4.5 2 .5 1.4 1 2.5 1.7 3.4 1.5 1.8 3.8 2.6 7.2 2.7h.3c3.2 0 5.6-.9 7.1-2.5.9-1 1.4-2.4 1.8-3.4.2-.5.3-.9.5-1.4l.2-.4c0-.1.1-.3.1-.4.2-.5.3-1 .6-1.4.2-.4.7-.6 1.2-.6s1 .3 1.2.6c.3.4.5.9.6 1.4 0 .1.1.3.1.4l.2.4c.2.5.3.9.5 1.4.4 1.1.9 2.4 1.8 3.4 1.5 1.7 3.9 2.5 7.1 2.5h.3c3.4 0 5.7-.9 7.2-2.7.7-.9 1.3-1.9 1.7-3.4.2-.6.4-1.2.5-2l.1-.2c.1-.6.3-1.2.2-1.8 0-.3.2-.5.6-.8.3-.2.5-.4.7-.7v-3c.4-.7-.3-.9-.7-.9zM24.2 33.6c-1.1 1.3-2.7 2.2-4.5 2.5-.4.1-.8.1-1.2.1-2 0-3.4-.4-4.5-1.2-1.2-.9-2-2.3-2.4-4.3-.4-1.7-.6-3.5.4-4.8 1.1-1.4 3.3-1.7 4.8-1.7h1.3c2.2 0 3.9.3 5.3.8.9.3 2.5 1.2 2.6 3.1.1 2-.6 4.1-1.8 5.5zm24.3-2.9c-.4 2-1.2 3.4-2.4 4.3-1.1.8-2.6 1.2-4.5 1.2-.4 0-.8 0-1.2-.1-1.8-.3-3.4-1.1-4.5-2.5-1.2-1.5-1.8-3.5-1.7-5.6.1-1.9 1.7-2.7 2.6-3.1 1.4-.5 3.2-.8 5.3-.8h1.3c1.5.1 3.6.3 4.8 1.7.8 1.4.6 3.2.3 4.9z"/></svg>