<svg xmlns="http://www.w3.org/2000/svg" viewBox="0 0 60 60"><path d="M29.8 37.4c1.9.1 3.6-.6 5-1.9 1.4-1.3 2.1-3 2.1-4.8v-3.1h-3.4c-.5 0-.8-.4-.8-.8s.4-.8.8-.8H37v-3h-3.4c-.5 0-.8-.4-.8-.8 0-.5.4-.8.8-.8H37v-.5c0-1.8-.7-3.5-2-4.8-1.4-1.3-3.1-2-4.9-2-3.8 0-6.9 3.1-6.9 6.9v.5h2.7c.5 0 .8.4.8.8 0 .5-.4.8-.8.8h-2.7v3h2.7c.5 0 .8.4.8.8s-.4.8-.8.8h-2.7v2.7c-.2 3.8 2.8 6.9 6.6 7zm1.5 3.3c4.9-.6 8.7-4.8 8.7-9.7 0-.5-.4-1-1-1-.5 0-1 .4-1 1-.2 4.4-4 7.7-8.4 7.5-4.2-.2-7.4-3.4-7.6-7.5 0-.6-.4-1-1-1-.5 0-1 .4-1 1 0 4.9 3.8 9.1 8.7 9.7h.3V44h-3.2c-.5 0-1 .4-1 1 0 .5.4 1 1 1h8.5c.5 0 1-.4 1-1 0-.5-.4-1-1-1H31v-3.3h.3z" fill="#ff9711"/></svg>