<?xml version="1.0" encoding="UTF-8"?>
<svg width="56px" height="47px" viewBox="0 0 56 47" version="1.1" xmlns="http://www.w3.org/2000/svg" xmlns:xlink="http://www.w3.org/1999/xlink">
    <!-- Generator: Sketch 64 (93537) - https://sketch.com -->
    <title>vegan</title>
    <desc>Created with Sketch.</desc>
    <g id="Page-1" stroke="none" stroke-width="1" fill="none" fill-rule="evenodd">
        <g id="vegan" fill-rule="nonzero">
            <g id="Group" transform="translate(14.000000, 44.000000)" fill="#ACCB7D" opacity="0.2784">
                <g id="Oval">
                    <ellipse cx="20.8" cy="1.6" rx="20.8" ry="1.3"></ellipse>
                    <ellipse cx="20.8" cy="1.6" rx="20.8" ry="1.3"></ellipse>
                </g>
                <ellipse id="Oval" cx="20.8" cy="1.6" rx="20.8" ry="1.3"></ellipse>
            </g>
            <g id="Group" transform="translate(20.000000, 2.000000)" fill="#ACCB7D">
                <path d="M6.5,5 C6.5,4.3 6.4,3.6 6.1,2.9 C5.5,1.5 4.5,0.5 3.2,0.1 C2.7,1.3 2.6,2.7 3.2,4.1 C3.5,4.8 3.9,5.4 4.3,5.8 C4.8,6.3 5.3,6.7 5.9,6.9 C6.3,6.4 6.5,5.7 6.5,5 Z" id="Path"></path>
                <path d="M6.4,9.6 C6.3,9.3 6.2,8.9 6,8.6 C5.8,8.3 5.7,8 5.4,7.7 C5,7.2 4.4,6.7 3.8,6.4 C2.5,5.8 1.2,5.8 0.1,6.4 C0.5,7.7 1.3,8.8 2.6,9.4 C4,10.1 5.3,10.1 6.4,9.6 Z" id="Path"></path>
                <path d="M10.2,6.7 C10.7,5.4 10.6,3.9 10,2.6 C8.8,2.9 7.8,3.9 7.3,5.2 C7,5.9 6.9,6.6 7,7.2 C7,7.5 7.1,7.9 7.2,8.2 C7.3,8.5 7.4,8.9 7.5,9.2 C8.6,8.9 9.7,8.1 10.2,6.7 Z" id="Path"></path>
                <path d="M8,14.2 C7.7,12.9 6.8,11.7 5.6,11 C4.4,10.3 3,10.3 1.9,10.9 C2.2,12.2 3.1,13.3 4.3,14 C5.5,14.6 6.8,14.7 8,14.2 Z" id="Path"></path>
                <path d="M11.7,7.4 C10.5,7.7 9.5,8.6 8.9,9.9 C8.3,11.2 8.4,12.7 8.9,13.9 C10.1,13.6 11.2,12.8 11.8,11.5 C12.4,10.2 12.3,8.6 11.7,7.4 Z" id="Path"></path>
                <path d="M9.4,18.9 C9.4,18.7 9.3,18.5 9.2,18.2 C8.8,17.1 8.1,16.2 7.1,15.6 C5.9,14.9 4.5,14.9 3.4,15.3 C3.7,16.6 4.5,17.7 5.7,18.5 C6.5,19 7.4,19.2 8.2,19.1 C8.6,19.1 9,19 9.4,18.9 Z" id="Path"></path>
                <path d="M10.5,14.5 C9.9,15.8 9.9,17.2 10.4,18.5 C10.4,18.5 10.4,18.6 10.4,18.6 C10.4,18.6 10.4,18.6 10.4,18.6 C11.6,18.4 12.7,17.6 13.3,16.3 C13.9,15 13.9,13.5 13.3,12.2 C12.1,12.4 11.1,13.3 10.5,14.5 Z" id="Path"></path>
            </g>
            <g id="Group" transform="translate(0.000000, 2.000000)" fill="#ACCB7D">
                <path d="M32,25.9 C31.6,23.3 31.8,20.7 32.3,18.2 C32.8,15.6 33.7,13.2 35,10.9 C36.3,8.6 37.8,6.5 39.7,4.7 C41.6,2.9 43.7,1.3 46,0.2 C43.8,1.6 41.8,3.2 40.1,5.1 C38.4,7 36.9,9 35.7,11.3 C34.5,13.5 33.6,15.9 32.9,18.4 C32.2,20.7 31.9,23.3 32,25.9 Z" id="Path"></path>
                <path d="M30.4,25.1 C29,22.5 27.2,20.1 25,18 C22.9,15.9 20.4,14.1 17.7,12.9 C15,11.6 12.1,10.7 9.2,10.3 C6.2,9.9 3.2,10 0.2,10.5 C3.1,9.7 6.2,9.4 9.2,9.7 C12.2,10 15.2,10.8 18,12.2 C20.7,13.6 23.3,15.4 25.4,17.6 C27.6,19.8 29.3,22.3 30.4,25.1 Z" id="Path"></path>
                <path d="M31.1,26.2 C31.2,23.8 31.8,21.4 32.9,19.3 C33.9,17.1 35.4,15.2 37.2,13.5 C39,11.9 41.1,10.6 43.4,9.8 C45.7,9 48.1,8.6 50.5,8.7 C48.1,8.9 45.8,9.4 43.6,10.3 C41.4,11.2 39.4,12.4 37.7,14 C35.9,15.5 34.5,17.4 33.4,19.5 C32.3,21.6 31.5,23.9 31.1,26.2 Z" id="Path"></path>
            </g>
            <path d="M34.4,21.1 L32,18.8 L29.5,21.1 L27,18.8 L24.8,21.1 L22.1,18.8 L22.1,41.7 C22.1,44.2 24.2,46.3 26.7,46.3 L34.1,46.3 L41.5,46.3 C44,46.3 46.1,44.2 46.1,41.7 L46.1,18.8 L43.9,21.1 L41.7,18.8 L39,21.1 L36.5,18.8 L34.4,21.1 Z" id="Path" stroke="#89572C" stroke-width="0.7907" fill="#F9D69D" stroke-linecap="round" stroke-linejoin="round"></path>
            <path d="M38,27.2 C36,26.5 34.7,27.8 34.2,28.4 C33.7,27.8 32.5,26.4 30.4,27.2 C27.8,28.1 27.7,29.8 27.7,31.3 C27.7,33.9 34,38.7 34,38.7 L34.4,38.7 C34.4,38.7 40.7,33.9 40.7,31.3 C40.7,29.8 40.6,28.1 38,27.2 Z" id="Path" stroke="#824E20" stroke-width="1.1281" fill="#EE3E2A" stroke-linecap="round" stroke-linejoin="round"></path>
            <circle id="Oval" stroke="#824E20" stroke-width="0.6784" fill="#EE3E2A" stroke-linecap="round" stroke-linejoin="round" cx="34.2" cy="6.4" r="1.6"></circle>
            <circle id="Oval" stroke="#824E20" stroke-width="0.6784" fill="#EE3E2A" stroke-linecap="round" stroke-linejoin="round" cx="39.2" cy="11.6" r="1.6"></circle>
            <circle id="Oval" stroke="#824E20" stroke-width="0.6784" fill="#EE3E2A" stroke-linecap="round" stroke-linejoin="round" cx="39.6" cy="2.5" r="1.6"></circle>
        </g>
    </g>
</svg>